<?xml version="1.0" encoding="UTF-8"?>
<svg xmlns="http://www.w3.org/2000/svg" version="1.1" viewBox="0 0 1080 1080">
  <defs>
    <style>
      .cls-1 {
        fill: #fff;
      }

      .cls-2 {
        fill: #9d6dc2;
      }

      .cls-3 {
        fill: #e8c63f;
      }
    </style>
  </defs>
  <!-- Generator: Adobe Illustrator 28.6.0, SVG Export Plug-In . SVG Version: 1.2.0 Build 709)  -->
  <g>
    <g id="Layer_1">
      <path class="cls-2" d="M855,424.4s-45.36-44.1-69.3-61.74c0,0-136.08,79.38-210.42,265.86,0,0,65.49-149.68,184.07-222.61,0,0,25.09-21.83,46.51-11.75l49.14,30.24Z"/>
      <polygon class="cls-2" points="557.01 544.72 572.13 547.25 524.25 577.49 557.01 544.72"/>
      <path class="cls-2" d="M802.89,852.05c-331.52-77.75-349.83-302.92-349.83-302.92,0-15.12-12.6-12.6-12.6-12.6-10.08,1.26-10.08,13.86-10.08,13.86-6.3,211.68,156.24,384.3,156.24,384.3-171.36-151.2-167.58-376.74-167.58-376.74,0-17.64-5.04-13.86-5.04-13.86-10.08,2.52-12.6,16.38-12.6,16.38-47.88,238.14,39.06,385.56,39.06,385.56-100.8-165.06-52.92-380.52-52.92-380.52,3.78-12.6-8.82-5.04-8.82-5.04-105.84,71.82-189,246.96-189,246.96,50.4-132.3,129.78-209.16,129.78-209.16,37.8-41.58,112.14-76.86,112.14-76.86,27.72-7.56,25.2-15.75,25.2-15.75h29.61c27.72,161.28,185.22,228.06,185.22,228.06,0,0-146.79-58.59-188.37-185.85l-2.52-6.3c-5.04-21.42-8.82-16.38-8.82-16.38-7.56,1.26-5.04,18.9-5.04,18.9,46.26,200.46,225.31,278.02,335.21,307.14l14.87,3.76-14.11-2.95Z"/>
      <path class="cls-3" d="M514.17,577.49s-13.86-21.42-20.16-57.96c0,0,32.13,18.27,56.07,20.79,0,0-7.56,16.38-35.91,37.17Z"/>
      <path class="cls-3" d="M352.99,559.31c-46.67-44.98-75.7-108.13-75.7-178.07,0-136.57,110.71-247.27,247.27-247.27,88.17,0,165.56,46.15,209.34,115.61,0,0-14.99,8.5-46.49,27.4,0,0-12.6-23.94-11.34-75.6,0,0-78.12-40.32-122.22-7.56,0,0-6.3,8.82-11.34,44.1,0,0-3.78,30.24-6.3,84.42,0,0-64.26,109.62-253.26,74.34,0,0,54.18,47.88,175.14,52.92,0,0,76.86-1.26,85.68,8.82,0,0,10.08,3.78-23.94,16.38,0,0-17.64,7.56-41.58-2.52,0,0-66.78-17.64-112.14,8.82,0,0-28.98,12.6,0,30.24,0,0,11.34,7.56,49.14,11.34,0,0-27.72,12.6-57.96,34.02l-4.31,2.61Z"/>
      <path class="cls-2" d="M541.89,273.83s1.26-47.88,12.6-78.12c0,0,13.23-10.71,24.57-9.45,0,0-18.9,11.34-20.16,78.12l-17.01,9.45Z"/>
      <path class="cls-2" d="M555.75,306.58l-17.64,16.38s-23.94,56.7-119.7,76.86c0,0,107.73,1.89,137.34-93.24Z"/>
      <path class="cls-1" d="M606.15,403.6s7.56-10.08,10.08-30.24c0,0-.63-24.57,29.61-23.31,0,0,28.98,44.1,8.82,66.78,0,0-18.9,21.42-48.51-13.23Z"/>
      <path class="cls-1" d="M575.91,413.69s-11.34-1.26-15.12-7.56c0,0-11.97-10.71-22.05-6.93,0,0,7.56,32.76,28.98,39.06,0,0,17.64,5.04,8.19-24.57Z"/>
    </g>
  </g>
</svg>