<?xml version="1.0" encoding="UTF-8"?>
<svg id="Capa_2" xmlns="http://www.w3.org/2000/svg" viewBox="0 0 957.98 1022.79">
  <defs>
    <style>
      .cls-1 {
        fill: none;
      }
    </style>
  </defs>
  <g id="Capa_1-2" data-name="Capa_1">
    <g>
      <g>
        <path d="M30.64,929.9v7.53c-2.71.74-4.77,1.89-6.19,3.44-1.42,1.55-2.13,3.46-2.13,5.73s.59,4.09,1.77,5.73,3.1,3.2,5.76,4.68c1.83,1.01,5.98,2.92,12.44,5.76,3.93,1.7,6.97,3.24,9.13,4.62s4.2,3.09,6.12,5.14c5.15,5.41,7.72,11.85,7.72,19.31,0,5.63-1.4,10.78-4.19,15.45-2.79,4.67-6.63,8.34-11.52,11-2.62,1.4-5.49,2.5-8.61,3.31-3.12.81-6.03,1.21-8.74,1.21v-7.46c3.8-.92,6.54-2.19,8.22-3.83,1.68-1.64,2.52-3.85,2.52-6.64s-1.31-5.5-3.93-7.72c-1.75-1.44-5.06-3.23-9.95-5.37-5.37-2.36-9.05-4.04-11.03-5.04-1.99-1-3.9-2.18-5.73-3.54-8.21-5.85-12.31-13.64-12.31-23.37,0-4.98,1.02-9.57,3.08-13.78,2.05-4.21,4.91-7.6,8.58-10.18,5.11-3.58,11.43-5.56,18.98-5.96ZM27.23,1015.33v7.46c-3.58,0-7.53-1.03-11.85-3.08-1.61-.74-2.73-1.22-3.34-1.44-.61-.22-1.2-.33-1.77-.33-.87,0-1.53.14-1.96.43-.44.29-1.14.99-2.09,2.13-.79.96-1.64,1.44-2.55,1.44-2.44,0-3.67-1.88-3.67-5.63v-23.83c0-1.22.35-2.26,1.05-3.11.7-.85,1.57-1.3,2.62-1.34.96-.04,1.71.23,2.26.82.55.59,1.01,1.63,1.41,3.11,1,3.75,2.45,7.27,4.35,10.54s4.11,6.05,6.64,8.31c2.57,2.36,5.54,3.86,8.9,4.52ZM35.81,937.42v-7.2c2.62.18,4.89.51,6.81,1.01,1.92.5,4.65,1.5,8.18,2.98.87.35,1.59.52,2.16.52.83,0,1.44-.28,1.83-.85l1.44-1.9c.7-.96,1.55-1.44,2.55-1.44,1.18,0,2.04.43,2.59,1.28.55.85.82,2.19.82,4.03v21.6c0,1.27-.36,2.3-1.08,3.11-.72.81-1.65,1.21-2.78,1.21-.87,0-1.68-.28-2.42-.85-.39-.35-.71-.77-.95-1.28-.24-.5-.47-1.34-.69-2.52-.48-2.14-1.31-4.34-2.49-6.61-1.18-2.27-2.55-4.3-4.12-6.09-3.14-3.54-7.09-5.87-11.85-7Z"/>
        <path d="M90.58,948.29l3.34,13.55-11.59,42.29c-.35,1.22-.52,2.36-.52,3.4,0,2.75,1.29,4.71,3.86,5.89l2.29,1.05c1.44.65,2.16,1.75,2.16,3.27,0,2.18-1.59,3.27-4.78,3.27h-16.63c-1.61,0-2.89-.34-3.83-1.01-.94-.68-1.41-1.6-1.41-2.78,0-1.26.96-2.31,2.88-3.14,1.79-.79,3.11-1.49,3.96-2.13.85-.63,1.67-1.49,2.45-2.59,1.22-1.79,2.23-4.17,3.01-7.14l14.8-53.94ZM95.09,931.66h26.38l18.2,76.92c.35,1.35.74,2.55,1.18,3.6.39.83,1.27,1.51,2.62,2.03,1.13.48,1.92.96,2.36,1.44.44.48.65,1.14.65,1.96,0,2.27-1.7,3.4-5.11,3.4h-32.67c-1.31,0-2.36-.32-3.14-.95-.79-.63-1.18-1.47-1.18-2.52,0-.87.17-1.53.52-1.96.35-.44,1.13-.98,2.36-1.64.87-.44,1.48-.92,1.83-1.44.35-.52.52-1.18.52-1.96,0-.74-.07-1.4-.2-1.96l-2.09-9.49h-18.26l1.77-7.79h14.66l-12.05-53.22,1.64-6.42Z"/>
        <path d="M180.89,1021.02h-30.83c-1.57,0-2.78-.29-3.63-.88s-1.28-1.43-1.28-2.52c0-1.79.87-2.97,2.62-3.54,1.44-.48,2.28-.77,2.52-.88.24-.11.49-.36.75-.75.52-.7.79-1.81.79-3.34v-65.53c0-1.53-.26-2.64-.79-3.34-.26-.39-.51-.64-.75-.75-.24-.11-1.08-.4-2.52-.88-1.75-.57-2.62-1.74-2.62-3.54,0-1.09.43-1.93,1.28-2.52s2.06-.88,3.63-.88h33.13c1.92,0,3.29.26,4.12.79,1.13.7,1.7,1.62,1.7,2.75,0,1.92-1.05,3.12-3.14,3.6-1.7.39-2.71.65-3.01.79-.31.13-.63.39-.98.79-.65.79-.98,2.01-.98,3.67v76.99ZM186.2,1021.02v-7.33c2.14-.39,3.83-.83,5.07-1.31,1.24-.48,2.43-1.18,3.57-2.09,1.83-1.44,3.51-3.43,5.04-5.96,1.53-2.53,2.77-5.34,3.73-8.45.7-2.4,1.34-3.98,1.93-4.75.59-.76,1.45-1.15,2.59-1.15,1.22,0,2.12.5,2.68,1.51.26.48.39,1.44.39,2.88v26.64h-25.01Z"/>
        <path d="M258.84,998.11l-6.22,22.91h-17.22l-23.31-78.23c-.35-1.18-.68-1.97-.98-2.39-.31-.41-.79-.77-1.44-1.08-1.4-.57-2.31-1.09-2.75-1.57-.44-.48-.65-1.2-.65-2.16,0-1.31.59-2.33,1.77-3.08.92-.57,2.42-.85,4.52-.85h29.13c1.83,0,3.09.04,3.76.13.68.09,1.23.26,1.67.52.44.31.81.74,1.11,1.31.3.57.46,1.11.46,1.64,0,1.62-.76,2.77-2.29,3.47-1.14.57-1.91,1.15-2.32,1.73-.42.59-.62,1.43-.62,2.52,0,.7.07,1.31.2,1.83l15.19,53.29ZM261.32,988.75l-3.47-12.31,7.53-27.56c.48-1.74.74-2.82.79-3.21.09-.96-.13-2.03-.65-3.21-.7-1.53-1.79-2.53-3.27-3.01l-2.16-.79c-1.7-.57-2.55-1.68-2.55-3.34,0-1.18.48-2.08,1.44-2.72.96-.63,2.29-.95,3.99-.95h16.04c2.01,0,3.32.2,3.93.59,1.05.65,1.57,1.59,1.57,2.82,0,.83-.16,1.48-.49,1.96-.33.48-.93.92-1.8,1.31l-3.34,1.57c-1.4.65-2.74,1.95-4.03,3.9-1.29,1.94-2.28,4.16-2.98,6.64l-10.54,38.3Z"/>
        <path d="M305.82,948.29l3.34,13.55-11.59,42.29c-.35,1.22-.52,2.36-.52,3.4,0,2.75,1.29,4.71,3.86,5.89l2.29,1.05c1.44.65,2.16,1.75,2.16,3.27,0,2.18-1.59,3.27-4.78,3.27h-16.63c-1.61,0-2.89-.34-3.83-1.01-.94-.68-1.41-1.6-1.41-2.78,0-1.26.96-2.31,2.88-3.14,1.79-.79,3.11-1.49,3.96-2.13.85-.63,1.67-1.49,2.45-2.59,1.22-1.79,2.23-4.17,3.01-7.14l14.8-53.94ZM310.33,931.66h26.38l18.2,76.92c.35,1.35.74,2.55,1.18,3.6.39.83,1.27,1.51,2.62,2.03,1.13.48,1.92.96,2.36,1.44.44.48.65,1.14.65,1.96,0,2.27-1.7,3.4-5.11,3.4h-32.67c-1.31,0-2.36-.32-3.14-.95-.79-.63-1.18-1.47-1.18-2.52,0-.87.17-1.53.52-1.96.35-.44,1.13-.98,2.36-1.64.87-.44,1.48-.92,1.83-1.44.35-.52.52-1.18.52-1.96,0-.74-.07-1.4-.2-1.96l-2.09-9.49h-18.26l1.77-7.79h14.66l-12.05-53.22,1.64-6.42Z"/>
        <path d="M408.94,948.29l3.34,13.55-11.59,42.29c-.35,1.22-.52,2.36-.52,3.4,0,2.75,1.29,4.71,3.86,5.89l2.29,1.05c1.44.65,2.16,1.75,2.16,3.27,0,2.18-1.59,3.27-4.78,3.27h-16.63c-1.61,0-2.89-.34-3.83-1.01-.94-.68-1.41-1.6-1.41-2.78,0-1.26.96-2.31,2.88-3.14,1.79-.79,3.11-1.49,3.96-2.13.85-.63,1.67-1.49,2.45-2.59,1.22-1.79,2.23-4.17,3.01-7.14l14.8-53.94ZM413.45,931.66h26.38l18.2,76.92c.35,1.35.74,2.55,1.18,3.6.39.83,1.26,1.51,2.62,2.03,1.13.48,1.92.96,2.36,1.44.44.48.65,1.14.65,1.96,0,2.27-1.7,3.4-5.11,3.4h-32.67c-1.31,0-2.36-.32-3.14-.95-.79-.63-1.18-1.47-1.18-2.52,0-.87.17-1.53.52-1.96.35-.44,1.13-.98,2.36-1.64.87-.44,1.48-.92,1.83-1.44.35-.52.52-1.18.52-1.96,0-.74-.07-1.4-.2-1.96l-2.09-9.49h-18.26l1.77-7.79h14.66l-12.05-53.22,1.64-6.42Z"/>
        <path d="M526.07,1021.02h-30.83c-1.57,0-2.78-.29-3.63-.88s-1.28-1.43-1.28-2.52c0-1.79.87-2.97,2.62-3.54,1.44-.48,2.28-.77,2.52-.88.24-.11.49-.36.75-.75.52-.7.79-1.81.79-3.34v-65.53c0-1.53-.26-2.64-.79-3.34-.26-.39-.51-.64-.75-.75-.24-.11-1.08-.4-2.52-.88-1.75-.57-2.62-1.74-2.62-3.54,0-1.09.43-1.93,1.28-2.52s2.06-.88,3.63-.88h33.13c1.92,0,3.29.26,4.12.79,1.13.7,1.7,1.62,1.7,2.75,0,1.92-1.05,3.12-3.14,3.6-1.7.39-2.71.65-3.01.79-.31.13-.63.39-.98.79-.65.79-.98,2.01-.98,3.67v76.99ZM531.37,1021.02v-7.33c2.14-.39,3.83-.83,5.07-1.31,1.24-.48,2.43-1.18,3.57-2.09,1.83-1.44,3.51-3.43,5.04-5.96,1.53-2.53,2.77-5.34,3.73-8.45.7-2.4,1.34-3.98,1.93-4.75.59-.76,1.45-1.15,2.59-1.15,1.22,0,2.12.5,2.68,1.51.26.48.39,1.44.39,2.88v26.64h-25.01Z"/>
        <path d="M576.78,948.29l3.34,13.55-11.59,42.29c-.35,1.22-.52,2.36-.52,3.4,0,2.75,1.29,4.71,3.86,5.89l2.29,1.05c1.44.65,2.16,1.75,2.16,3.27,0,2.18-1.59,3.27-4.78,3.27h-16.63c-1.62,0-2.89-.34-3.83-1.01-.94-.68-1.41-1.6-1.41-2.78,0-1.26.96-2.31,2.88-3.14,1.79-.79,3.11-1.49,3.96-2.13.85-.63,1.67-1.49,2.45-2.59,1.22-1.79,2.23-4.17,3.01-7.14l14.8-53.94ZM581.29,931.66h26.38l18.2,76.92c.35,1.35.74,2.55,1.18,3.6.39.83,1.26,1.51,2.62,2.03,1.13.48,1.92.96,2.36,1.44.44.48.65,1.14.65,1.96,0,2.27-1.7,3.4-5.11,3.4h-32.67c-1.31,0-2.36-.32-3.14-.95-.79-.63-1.18-1.47-1.18-2.52,0-.87.17-1.53.52-1.96.35-.44,1.13-.98,2.36-1.64.87-.44,1.48-.92,1.83-1.44.35-.52.52-1.18.52-1.96,0-.74-.07-1.4-.2-1.96l-2.09-9.49h-18.26l1.77-7.79h14.66l-12.05-53.22,1.64-6.42Z"/>
        <path d="M707.13,998.11l-6.22,22.91h-17.22l-23.31-78.23c-.35-1.18-.68-1.97-.98-2.39-.31-.41-.79-.77-1.44-1.08-1.4-.57-2.31-1.09-2.75-1.57-.44-.48-.65-1.2-.65-2.16,0-1.31.59-2.33,1.77-3.08.92-.57,2.42-.85,4.52-.85h29.13c1.83,0,3.09.04,3.76.13.68.09,1.23.26,1.67.52.44.31.81.74,1.11,1.31.31.57.46,1.11.46,1.64,0,1.62-.76,2.77-2.29,3.47-1.14.57-1.91,1.15-2.32,1.73-.41.59-.62,1.43-.62,2.52,0,.7.07,1.31.2,1.83l15.19,53.29ZM709.62,988.75l-3.47-12.31,7.53-27.56c.48-1.74.74-2.82.79-3.21.09-.96-.13-2.03-.65-3.21-.7-1.53-1.79-2.53-3.27-3.01l-2.16-.79c-1.7-.57-2.55-1.68-2.55-3.34,0-1.18.48-2.08,1.44-2.72.96-.63,2.29-.95,3.99-.95h16.04c2.01,0,3.32.2,3.93.59,1.05.65,1.57,1.59,1.57,2.82,0,.83-.16,1.48-.49,1.96-.33.48-.93.92-1.8,1.31l-3.34,1.57c-1.4.65-2.74,1.95-4.03,3.9-1.29,1.94-2.28,4.16-2.98,6.64l-10.54,38.3Z"/>
        <path d="M754.11,948.29l3.34,13.55-11.59,42.29c-.35,1.22-.52,2.36-.52,3.4,0,2.75,1.29,4.71,3.86,5.89l2.29,1.05c1.44.65,2.16,1.75,2.16,3.27,0,2.18-1.59,3.27-4.78,3.27h-16.63c-1.62,0-2.89-.34-3.83-1.01-.94-.68-1.41-1.6-1.41-2.78,0-1.26.96-2.31,2.88-3.14,1.79-.79,3.11-1.49,3.96-2.13.85-.63,1.67-1.49,2.45-2.59,1.22-1.79,2.23-4.17,3.01-7.14l14.8-53.94ZM758.63,931.66h26.38l18.2,76.92c.35,1.35.74,2.55,1.18,3.6.39.83,1.26,1.51,2.62,2.03,1.13.48,1.92.96,2.36,1.44.44.48.65,1.14.65,1.96,0,2.27-1.7,3.4-5.11,3.4h-32.67c-1.31,0-2.36-.32-3.14-.95-.79-.63-1.18-1.47-1.18-2.52,0-.87.17-1.53.52-1.96.35-.44,1.13-.98,2.36-1.64.87-.44,1.48-.92,1.83-1.44.35-.52.52-1.18.52-1.96,0-.74-.07-1.4-.2-1.96l-2.09-9.49h-18.26l1.77-7.79h14.66l-12.05-53.22,1.64-6.42Z"/>
        <path d="M844.69,929.9v7.92c-2.58.39-4.5,1.53-5.76,3.4-1.27,1.88-1.9,4.56-1.9,8.05v56.89c0,1.01.21,2.06.62,3.18.41,1.11.95,2.06,1.6,2.85.7.87,1.44,1.5,2.23,1.87.79.37,1.85.62,3.21.75v7.99c-8.47,0-15.82-2.2-22.06-6.61-5.5-3.88-9.65-9.11-12.44-15.68-2.79-6.57-4.19-14.35-4.19-23.34,0-6.59.9-12.73,2.72-18.43,1.81-5.7,4.44-10.64,7.89-14.83,3.49-4.23,7.67-7.64,12.54-10.21,4.87-2.57,9.55-3.86,14.04-3.86l1.51.07ZM849.86,937.88v-7.92c2.14.35,3.87.72,5.2,1.11,1.33.39,3.74,1.22,7.23,2.49,2.23.79,3.71,1.18,4.45,1.18,1.26,0,2.23-.57,2.88-1.7l.85-1.57c.52-1.05,1.51-1.57,2.95-1.57,1.18,0,2.08.35,2.72,1.05.63.7.95,1.73.95,3.08v27.23c0,1.75-.39,3.01-1.18,3.8s-1.68,1.18-2.68,1.18-1.89-.34-2.52-1.01c-.63-.68-1.15-1.78-1.54-3.31-.92-3.45-1.81-6.15-2.68-8.12-1.88-4.15-4.02-7.51-6.42-10.08-1.62-1.74-3.23-3.09-4.84-4.03-1.62-.94-3.4-1.54-5.37-1.8ZM850.06,1022.79v-7.99c3.4-.26,6.98-1.55,10.74-3.86,2.01-1.26,3.8-2.96,5.37-5.07,1.57-2.12,2.75-4.44,3.54-6.97.44-1.4.95-2.39,1.54-2.98s1.36-.88,2.32-.88c1.05,0,1.92.39,2.62,1.18.7.79,1.05,1.77,1.05,2.95,0,1.96-.75,4.34-2.26,7.14-1.51,2.79-3.44,5.37-5.79,7.72-2.88,2.88-5.84,5.02-8.87,6.42-3.03,1.4-6.45,2.18-10.25,2.36Z"/>
        <path d="M902.07,948.29l3.34,13.55-11.59,42.29c-.35,1.22-.52,2.36-.52,3.4,0,2.75,1.29,4.71,3.86,5.89l2.29,1.05c1.44.65,2.16,1.75,2.16,3.27,0,2.18-1.59,3.27-4.78,3.27h-16.63c-1.62,0-2.89-.34-3.83-1.01-.94-.68-1.41-1.6-1.41-2.78,0-1.26.96-2.31,2.88-3.14,1.79-.79,3.11-1.49,3.96-2.13.85-.63,1.67-1.49,2.45-2.59,1.22-1.79,2.23-4.17,3.01-7.14l14.8-53.94ZM906.59,931.66h26.38l18.2,76.92c.35,1.35.74,2.55,1.18,3.6.39.83,1.26,1.51,2.62,2.03,1.13.48,1.92.96,2.36,1.44.44.48.65,1.14.65,1.96,0,2.27-1.7,3.4-5.11,3.4h-32.67c-1.31,0-2.36-.32-3.14-.95-.79-.63-1.18-1.47-1.18-2.52,0-.87.17-1.53.52-1.96.35-.44,1.13-.98,2.36-1.64.87-.44,1.48-.92,1.83-1.44.35-.52.52-1.18.52-1.96,0-.74-.07-1.4-.2-1.96l-2.09-9.49h-18.26l1.77-7.79h14.66l-12.05-53.22,1.64-6.42Z"/>
      </g>
      <g>
        <path class="cls-1" d="M476.54,915.6c-142.24,0-284.47-.03-426.71.13-4.84,0-5.79-.95-5.79-5.79.15-284.47.15-568.94,0-853.42,0-4.84.95-5.79,5.78-5.79,284.47.15,568.94.15,853.42,0,4.84,0,5.79.95,5.79,5.78-.15,284.47-.15,568.94,0,853.42,0,4.84-.95,5.79-5.78,5.79-142.24-.17-284.47-.14-426.71-.14ZM475.83,840.57c102.89,0,205.79.02,308.68-.06,6.33,0,12.72-.4,18.99-1.3,27.33-3.9,46.57-21.33,49.92-45.47,2.41-17.33-2.96-33.03-11.49-47.83-27.94-48.5-55.94-96.98-83.92-145.46-70.67-122.42-141.31-244.86-212.09-367.22-7.88-13.62-14.65-27.97-24.9-40.12-26.05-30.87-63.21-30.86-89.15-.06-4.88,5.79-8.72,12.27-12.48,18.79-11.76,20.36-23.46,40.77-35.22,61.13-90.68,157.03-181.38,314.05-272.07,471.08-4.49,7.77-8.23,15.84-10.6,24.55-8.56,31.5,6.02,58.3,37.1,68.07,9.53,3,19.32,3.9,29.25,3.9,102.66-.02,205.31-.01,307.97-.02Z"/>
        <path d="M475.83,840.57c-102.66,0-205.31,0-307.97.01-9.93,0-19.72-.9-29.25-3.9-31.08-9.78-45.66-36.57-37.1-68.07,2.37-8.71,6.11-16.78,10.6-24.55,90.69-157.03,181.38-314.05,272.07-471.08,11.76-20.36,23.46-40.77,35.22-61.13,3.77-6.52,7.61-13,12.48-18.79,25.93-30.8,63.1-30.81,89.15.06,10.25,12.15,17.02,26.5,24.9,40.12,70.78,122.36,141.42,244.8,212.09,367.22,27.99,48.48,55.98,96.96,83.92,145.46,8.52,14.79,13.89,30.5,11.49,47.83-3.35,24.14-22.59,41.57-49.92,45.47-6.27.89-12.66,1.29-18.99,1.3-102.89.08-205.79.06-308.68.06ZM475.6,814.47c102.64,0,205.29.01,307.93-.04,5.4,0,10.87-.13,16.2-.9,23.43-3.4,33.09-19.22,25.7-41.68-1.7-5.17-4.26-9.92-6.97-14.61-65.26-113.03-130.51-226.07-195.77-339.11-37.74-65.37-75.5-130.73-113.23-196.1-5-8.66-10.76-16.58-19.63-21.73-11.19-6.51-22.17-5.46-31.87,3.04-5.93,5.19-10.31,11.57-14.21,18.32-30.94,53.55-61.86,107.11-92.78,160.67-66.79,115.68-133.63,231.32-200.29,347.07-8.08,14.04-17.54,27.4-23.13,42.76-7.41,20.34.97,35.49,21.88,40.57,8.13,1.98,16.36,1.71,24.58,1.72,100.52.05,201.05.03,301.57.03Z"/>
        <path class="cls-1" d="M475.6,814.47c-100.52,0-201.05.02-301.57-.03-8.21,0-16.44.26-24.58-1.72-20.91-5.08-29.29-20.23-21.88-40.57,5.59-15.36,15.05-28.72,23.13-42.76,66.65-115.75,133.5-231.39,200.29-347.07,30.92-53.56,61.84-107.13,92.78-160.67,3.9-6.74,8.28-13.13,14.21-18.32,9.7-8.49,20.67-9.54,31.87-3.04,8.87,5.16,14.63,13.07,19.63,21.73,37.73,65.38,75.49,130.73,113.23,196.1,65.26,113.04,130.5,226.08,195.77,339.11,2.71,4.69,5.27,9.43,6.97,14.61,7.38,22.45-2.27,38.27-25.7,41.68-5.33.77-10.79.9-16.2.9-102.64.05-205.29.04-307.93.04ZM318.4,532.85c-.63,5.97,1.76,8.86,5.07,11.38,1.85,1.41,4.57,3.46,1.58,5.48-8.27,5.6-10.88,15.08-16.34,22.58-5.96,8.17-11.64,16.51-18.5,24.01-4.38,4.79-4.22,11.58.27,14.32,4.12,2.52,8.92,5.24,13.92,3.72,4.85-1.47,9.23-.73,13.77.44,3.96,1.02,7.83.46,11.85.1,6.91-.63,13.84-4.58,20.7-1.72,11.86,4.93,21.93,12.11,24.07,26.08,1.37,8.93,6.61,15.53,12.55,21.54,4.93,4.99,10.52,9.39,16.14,13.62,6.05,4.55,12.61,9.05,20.66,6.98,6.11-1.57,6.84,1.5,6.99,5.99.28,8.27,1.99,16.29,3.81,24.35,4.38,19.46,2.92,37.77-12.01,52.92-2.41,2.45-2.02,3.9,1.36,4.72,4.43,1.08,8.89.72,13.35.49,3.88-.2,6.72-1.34,6.8-6.18.04-2.34.24-5.43,3.5-6.26,2.31-.59,1.96-2.3,1.82-3.92-1.91-21.77,2.46-42.96,5.98-64.21,3.5-21.13,3.56-20.91,24.96-15.78,31.98,7.67,63.54,12.68,91.72-11.71,6.82-5.9,16.9-1.81,19.91,6.76,3.19,9.07,5.91,18.28,9.52,27.25,3,7.47,4.94,15.96,2.94,24.22-3.97,16.42-7.12,33.34-21.57,44.8-2.55,2.02-2.49,3.69,1.27,4.51,7.5,1.64,14.59-.97,19.1-7.33.65-.91,1.52-2.35,2.3-2.35,4.87-.04,4.42-3.69,5.31-6.84,4.16-14.77,8.5-29.5,15.41-43.45,4.46,18.11,1.03,35.51-4.31,52.79-1.18,3.81-6.63,6.97-4.48,10.59,2.66,4.48,8.61,2.21,13.18,2.56,4.6.35,7.29-1.16,6.37-6.46-.88-5.04,2.52-8.24,4.54-12.26,1.51-3-.45-9.36.27-14.22,2.17-14.66,4.32-29.33,6.73-43.96.35-2.16-1.39-9.54,5.03-3.19,1.04,1.03,2.12-.32,2.72-1.34,5.64-9.55,10.87-18.71,4.77-30.63-3.17-6.19-7.6-12.56-6.61-20.4.82-6.54,1.5-13.09,2.09-19.66,1.53-17.15,2.78-34.31-2.18-51.16-3.42-11.62-10.7-19.95-23.15-20.69-17.78-1.06-35.39-3.17-53.47-2.01-30.95,1.99-62.07,1.29-93.13,1.54-26.59.21-53.18-1.2-79.79.28-16.55.92-32.79-2.4-48.96-5.63-3.64-.73-6.43-2.28-8.11-5.95-2.9-6.32-8.64-8.56-14.22-4.4-5.93,4.42-10.44,5.06-15.5-2.3ZM471.7,336.1c-6.6-.27-17.88.53-29.07,1.91-15.38,1.91-30.82,4.13-44.66,11.88-10.28,5.76-10.42,13.05-.47,19.05,9.63,5.81,20.46,8.07,31.35,10.07,1.78.33,3.12.02,4.47-1.23,3.08-2.87,7.17-3.59,11.04-4.25,19.13-3.27,38.34-3.4,57.6-1.11,7.5.89,14.55,6.06,21.07,6.07,12.75.02,25.59-3.82,36.07-12.2,5.26-4.21,4.97-9.17-.18-13.74-4.31-3.82-9.58-5.93-14.97-7.62-21.99-6.89-44.66-8.6-72.25-8.84ZM476.43,305.02c-15.38-.02-29.11,9.51-34.37,23.67-1.43,3.84-2.01,6.12,3.68,5.61,20.42-1.83,40.9-1.62,61.33-.11,5.88.43,5.05-1.75,3.7-5.5-5.05-14.06-18.86-23.64-34.34-23.66ZM437.67,391.17c.09-1.83-.29-3.17-1.84-3.74-1.54-.57-2.75,0-3.44,1.51-.48,1.06-.94,2.15-1.33,3.25-11.75,33.69-23.49,67.39-35.23,101.09-.38,1.1-.91,2.19-1.06,3.32-.19,1.44.08,2.9,1.76,3.4,1.5.45,2.84.03,3.52-1.47.68-1.49,1.21-3.05,1.75-4.6,11.45-32.79,22.89-65.59,34.34-98.39.54-1.55,1.09-3.1,1.54-4.37ZM560.4,496.52c-.33-1.05-.77-2.63-1.3-4.17-5.84-16.85-11.67-33.7-17.54-50.54-5.86-16.84-11.74-33.68-17.66-50.5-.76-2.16-1.51-5.07-4.69-3.75-2.55,1.06-1.69,3.47-.93,5.52.49,1.32.91,2.66,1.38,3.99,10.83,31.02,21.66,62.04,32.51,93.05,1,2.87,2.03,5.75,3.21,8.55.64,1.5,2.03,1.86,3.55,1.31,1.35-.49,1.45-1.68,1.46-3.45ZM458.79,385.21c.01-1.16.72-3.7-2.48-3.91-3.44-.23-3.32,2.7-3.66,4.93-4.48,29.27-8.91,58.54-13.4,87.8-.37,2.4-1.09,5.21,1.87,5.92,3.32.8,3.56-2.42,3.9-4.62,4.59-29.73,9.1-59.47,13.77-90.11ZM516.24,474.89c-4.62-29.86-9.25-59.81-13.85-89.76-.35-2.3-.96-4.45-3.79-3.85-2.88.61-2.35,3.13-2.03,5.2,4.57,29.72,9.18,59.44,13.78,89.15.33,2.14.71,4.64,3.49,4.37,2.97-.28,2.31-2.98,2.41-5.11ZM474.78,409.96c0,8.22-.03,16.44.02,24.67.01,2.04-.37,4.77,2.59,4.89,3.4.15,3.25-2.76,3.25-5.09.04-16.21.03-32.42.03-48.63,0-2.2-.18-4.61-3.09-4.54-3.02.07-2.77,2.65-2.78,4.74-.03,7.99-.01,15.97-.03,23.96Z"/>
        <path d="M318.4,532.85c5.06,7.37,9.57,6.72,15.5,2.3,5.58-4.16,11.32-1.92,14.22,4.4,1.68,3.67,4.47,5.22,8.11,5.95,16.17,3.23,32.4,6.55,48.96,5.63,26.61-1.48,53.2-.06,79.79-.28,31.05-.25,62.18.45,93.13-1.54,18.08-1.16,35.69.95,53.47,2.01,12.45.74,19.73,9.07,23.15,20.69,4.96,16.85,3.71,34.02,2.18,51.16-.59,6.56-1.27,13.12-2.09,19.66-.98,7.84,3.45,14.21,6.61,20.4,6.1,11.92.87,21.08-4.77,30.63-.6,1.02-1.68,2.37-2.72,1.34-6.42-6.35-4.67,1.04-5.03,3.19-2.41,14.62-4.56,29.29-6.73,43.96-.72,4.87,1.23,11.23-.27,14.22-2.02,4.02-5.42,7.22-4.54,12.26.92,5.3-1.77,6.81-6.37,6.46-4.57-.34-10.52,1.93-13.18-2.56-2.15-3.62,3.31-6.78,4.48-10.59,5.33-17.28,8.77-34.68,4.31-52.79-6.9,13.95-11.24,28.68-15.41,43.45-.89,3.15-.44,6.79-5.31,6.84-.78,0-1.66,1.44-2.3,2.35-4.51,6.36-11.6,8.97-19.1,7.33-3.75-.82-3.82-2.48-1.27-4.51,14.46-11.46,17.6-28.38,21.57-44.8,2-8.26.06-16.76-2.94-24.22-3.61-8.98-6.32-18.18-9.52-27.25-3.02-8.57-13.09-12.66-19.91-6.76-28.19,24.39-59.75,19.38-91.72,11.71-21.4-5.13-21.46-5.35-24.96,15.78-3.52,21.25-7.9,42.44-5.98,64.21.14,1.62.49,3.33-1.82,3.92-3.27.84-3.46,3.92-3.5,6.26-.08,4.84-2.92,5.98-6.8,6.18-4.46.23-8.92.58-13.35-.49-3.39-.82-3.78-2.27-1.36-4.72,14.93-15.15,16.39-33.46,12.01-52.92-1.81-8.06-3.53-16.07-3.81-24.35-.15-4.49-.87-7.56-6.99-5.99-8.05,2.07-14.61-2.43-20.66-6.98-5.62-4.23-11.22-8.63-16.14-13.62-5.94-6.01-11.18-12.61-12.55-21.54-2.14-13.96-12.21-21.15-24.07-26.08-6.86-2.85-13.79,1.09-20.7,1.72-4.02.37-7.89.93-11.85-.1-4.54-1.17-8.92-1.92-13.77-.44-5,1.52-9.8-1.2-13.92-3.72-4.49-2.74-4.65-9.54-.27-14.32,6.86-7.5,12.54-15.84,18.5-24.01,5.46-7.49,8.07-16.98,16.34-22.58,2.99-2.02.27-4.08-1.58-5.48-3.32-2.52-5.71-5.41-5.07-11.38ZM648.45,678.79c1.26-1.7,1.8-3.57.47-5.7-4.36-6.97-3.96-14.11-.97-21.48.86-2.12,1.19-4.55,1.32-6.86.78-14.54,1.61-29.09,2.04-43.65.14-4.87-.83-9.78-1.48-16.58-1.3,2.58-1.78,3.14-1.86,3.75-2.19,17.72-5.27,35.29-8.73,52.79-2.77,14.02-1.78,27.11,9.21,37.72Z"/>
        <path d="M471.7,336.1c27.59.24,50.26,1.95,72.25,8.84,5.39,1.69,10.67,3.8,14.97,7.62,5.15,4.57,5.44,9.53.18,13.74-10.48,8.38-23.32,12.22-36.07,12.2-6.52-.01-13.57-5.18-21.07-6.07-19.26-2.29-38.47-2.16-57.6,1.11-3.87.66-7.96,1.39-11.04,4.25-1.35,1.26-2.69,1.56-4.47,1.23-10.89-2.01-21.72-4.26-31.35-10.07-9.94-6-9.81-13.29.47-19.05,13.83-7.75,29.27-9.97,44.66-11.88,11.19-1.39,22.47-2.18,29.07-1.91ZM481.14,359.5c.07-3.1-1.51-4.84-4.55-4.92-2.66-.06-4.39,1.35-4.65,4.13-.29,3.08,1.34,5.09,4.21,5.34,2.88.25,4.79-1.41,4.99-4.55ZM458.22,359.35c-.06-2.76-1.54-4.44-4.23-4.43-2.66.01-4.33,1.68-4.25,4.44.07,2.35,1.41,3.93,3.89,4.02,2.7.1,4.4-1.14,4.58-4.03ZM498.84,354.76c-2.36.57-4.09,1.91-3.99,4.68.09,2.4,1.47,3.87,3.95,3.92,2.72.06,4.47-1.22,4.51-4.08.04-2.79-1.65-4.12-4.47-4.53ZM431.53,355.4c-2.31.25-4.03,1.41-3.98,3.87.04,1.91,1.13,3.55,3.33,3.77,2.51.25,4.12-1.22,4.38-3.45.28-2.37-1.33-3.77-3.74-4.18ZM525.58,359.38c-.33-2.28-1.39-3.97-3.97-3.89-2.08.06-3.63,1.23-3.8,3.35-.19,2.36.98,4.04,3.51,4.25,2.57.21,3.69-1.45,4.25-3.71ZM409.14,355.99c-1.87-.04-3.2.66-3.43,2.66-.24,2.15.52,3.81,2.87,3.92,2.17.1,3.59-1.2,3.57-3.39-.01-1.77-1.01-3.07-3.01-3.19ZM544.65,362.6c2.07-.34,2.9-1.78,2.66-3.94-.22-2-1.49-2.72-3.39-2.63-2.02.1-3.03,1.39-3,3.15.04,2.06,1.18,3.48,3.73,3.42Z"/>
        <path d="M476.43,305.02c15.48.02,29.29,9.6,34.34,23.66,1.35,3.75,2.18,5.93-3.7,5.5-20.43-1.51-40.9-1.72-61.33.11-5.69.51-5.11-1.76-3.68-5.61,5.26-14.16,18.99-23.69,34.37-23.67Z"/>
        <path d="M437.67,391.17c-.45,1.27-1,2.82-1.54,4.37-11.44,32.8-22.89,65.59-34.34,98.39-.54,1.55-1.07,3.11-1.75,4.6-.68,1.5-2.01,1.92-3.52,1.47-1.67-.5-1.95-1.97-1.76-3.4.15-1.13.68-2.22,1.06-3.32,11.74-33.7,23.48-67.39,35.23-101.09.38-1.1.84-2.18,1.33-3.25.69-1.51,1.9-2.08,3.44-1.51,1.55.57,1.93,1.91,1.84,3.74Z"/>
        <path d="M560.4,496.52c-.01,1.77-.11,2.95-1.46,3.45-1.52.55-2.91.2-3.55-1.31-1.19-2.8-2.21-5.67-3.21-8.55-10.85-31.01-21.68-62.03-32.51-93.05-.46-1.33-.89-2.67-1.38-3.99-.77-2.05-1.62-4.46.93-5.52,3.18-1.32,3.93,1.58,4.69,3.75,5.92,16.82,11.8,33.66,17.66,50.5,5.86,16.84,11.7,33.69,17.54,50.54.53,1.54.97,3.12,1.3,4.17Z"/>
        <path d="M458.79,385.21c-4.67,30.65-9.18,60.39-13.77,90.11-.34,2.2-.58,5.42-3.9,4.62-2.96-.71-2.24-3.51-1.87-5.92,4.49-29.26,8.92-58.54,13.4-87.8.34-2.23.22-5.16,3.66-4.93,3.2.21,2.49,2.76,2.48,3.91Z"/>
        <path d="M516.24,474.89c-.1,2.13.56,4.83-2.41,5.11-2.79.27-3.16-2.23-3.49-4.37-4.6-29.72-9.21-59.43-13.78-89.15-.32-2.07-.85-4.58,2.03-5.2,2.84-.6,3.44,1.55,3.79,3.85,4.6,29.95,9.24,59.9,13.85,89.76Z"/>
        <path d="M474.79,409.96c0-7.99-.01-15.97.02-23.96,0-2.09-.24-4.67,2.78-4.74,2.92-.07,3.09,2.35,3.09,4.54,0,16.21.01,32.42-.03,48.63,0,2.33.14,5.23-3.25,5.09-2.96-.13-2.58-2.86-2.59-4.89-.05-8.22-.02-16.44-.01-24.67Z"/>
        <path class="cls-1" d="M648.45,678.79c-10.99-10.61-11.98-23.7-9.21-37.72,3.46-17.51,6.54-35.07,8.73-52.79.08-.61.56-1.18,1.86-3.75.64,6.79,1.62,11.7,1.48,16.58-.43,14.56-1.26,29.1-2.04,43.65-.12,2.31-.45,4.74-1.32,6.86-2.99,7.37-3.39,14.51.97,21.48,1.33,2.13.79,4-.47,5.7Z"/>
        <path class="cls-1" d="M481.14,359.5c-.2,3.13-2.11,4.8-4.99,4.54-2.88-.25-4.5-2.26-4.21-5.34.26-2.78,1.99-4.19,4.65-4.13,3.04.07,4.62,1.81,4.55,4.92Z"/>
        <path class="cls-1" d="M458.22,359.36c-.18,2.88-1.88,4.12-4.58,4.03-2.48-.09-3.82-1.68-3.89-4.02-.09-2.76,1.58-4.42,4.25-4.44,2.69-.01,4.17,1.66,4.22,4.43Z"/>
        <path class="cls-1" d="M498.84,354.76c2.82.41,4.51,1.74,4.47,4.53-.04,2.86-1.79,4.14-4.51,4.08-2.48-.06-3.86-1.52-3.95-3.92-.1-2.77,1.63-4.11,3.99-4.68Z"/>
        <path class="cls-1" d="M431.53,355.4c2.41.41,4.02,1.82,3.74,4.18-.27,2.23-1.88,3.71-4.38,3.45-2.2-.22-3.29-1.86-3.33-3.77-.06-2.46,1.66-3.62,3.98-3.87Z"/>
        <path class="cls-1" d="M525.58,359.38c-.57,2.27-1.68,3.93-4.25,3.71-2.53-.21-3.7-1.9-3.51-4.25.17-2.12,1.72-3.28,3.8-3.35,2.58-.08,3.63,1.6,3.97,3.89Z"/>
        <path class="cls-1" d="M409.13,355.99c2,.12,3,1.41,3.02,3.19.02,2.2-1.4,3.49-3.57,3.39-2.35-.11-3.11-1.77-2.87-3.92.22-2.01,1.56-2.71,3.42-2.66Z"/>
        <path class="cls-1" d="M544.65,362.6c-2.56.06-3.7-1.37-3.73-3.42-.03-1.75.98-3.05,3-3.15,1.91-.09,3.17.63,3.39,2.63.24,2.16-.59,3.6-2.66,3.94Z"/>
      </g>
      <g>
        <path d="M163.06,1.77v89.36h-30.83c-1.57,0-2.78-.29-3.63-.88s-1.28-1.43-1.28-2.52c0-1.79.87-2.97,2.62-3.54,1.44-.48,2.28-.77,2.52-.88.24-.11.49-.36.75-.75.52-.7.79-1.81.79-3.34V13.68c0-1.53-.26-2.64-.79-3.34-.26-.39-.51-.64-.75-.75-.24-.11-1.08-.4-2.52-.88-1.75-.57-2.62-1.74-2.62-3.54,0-1.09.43-1.93,1.28-2.52s2.06-.88,3.63-.88h30.83ZM168.55,49.43v-7.59c2.53-1.22,4.41-2.55,5.63-3.99,1.22-1.44,2.12-3.36,2.68-5.76.35-1.66.81-2.8,1.37-3.44.57-.63,1.37-.95,2.42-.95,1.4,0,2.36.55,2.88,1.64.3.57.46,1.86.46,3.86v24.94c0,2.05-.23,3.47-.69,4.26s-1.3,1.18-2.52,1.18c-1,0-1.79-.3-2.36-.92-.57-.61-1.03-1.64-1.37-3.08-.74-3.01-1.8-5.32-3.18-6.94-1.37-1.61-3.15-2.68-5.34-3.21ZM168.88,1.77h26.38v23.17c0,1.35-.26,2.34-.79,2.95-.52.61-1.35.92-2.49.92-.96,0-1.66-.2-2.09-.59-.44-.39-.85-1.2-1.24-2.42-1.66-5.06-4.09-8.92-7.3-11.59-3.21-2.66-7.36-4.26-12.47-4.78V1.77ZM168.95,91.13v-7.07c2.84-.44,5.18-1.05,7.04-1.83,1.85-.79,3.72-1.99,5.6-3.6,1.88-1.61,3.37-3.28,4.48-5.01,1.11-1.72,2.17-4,3.18-6.84.48-1.4.98-2.35,1.51-2.85.52-.5,1.24-.75,2.16-.75,1.22,0,2.07.36,2.55,1.08.48.72.72,1.98.72,3.76v23.11h-27.23Z"/>
        <path d="M241.74,1.77v76.92c0,1.7.33,2.92.98,3.67.35.44.68.71.98.82.3.11,1.31.38,3.01.82,2.09.48,3.14,1.68,3.14,3.6,0,1.14-.57,2.05-1.7,2.75-.83.52-2.2.79-4.12.79h-33.13c-1.57,0-2.78-.29-3.63-.88s-1.28-1.43-1.28-2.52c0-1.79.87-2.97,2.62-3.54,1.44-.48,2.28-.77,2.52-.88.24-.11.49-.36.75-.75.52-.7.79-1.81.79-3.34V13.68c0-1.53-.26-2.64-.79-3.34-.26-.39-.51-.64-.75-.75-.24-.11-1.08-.4-2.52-.88-1.75-.57-2.62-1.74-2.62-3.54,0-1.09.43-1.93,1.28-2.52s2.06-.88,3.63-.88h30.83ZM261.84,47.33c4.02.61,7.1,1.29,9.26,2.03,2.16.74,4.11,1.75,5.86,3.01,1.83,1.35,3.24,2.97,4.22,4.84.98,1.88,1.47,3.86,1.47,5.96v13.55c0,1.4.46,2.09,1.37,2.09.35,0,.64-.1.88-.29.24-.2.58-.58,1.01-1.15,1.09-1.48,2.2-2.23,3.34-2.23.74,0,1.48.39,2.23,1.18.74.79,1.11,1.57,1.11,2.36,0,1.35-.64,3-1.93,4.94-1.29,1.94-2.89,3.68-4.81,5.2-1.79,1.44-3.73,2.48-5.83,3.11-2.09.63-4.56.95-7.4.95-5.76,0-10.26-1.65-13.49-4.94-3.23-3.29-4.84-7.89-4.84-13.78v-11c0-2.44-.02-3.86-.07-4.26-.22-1.74-.83-3.25-1.83-4.52-1.27-1.53-3.08-2.42-5.43-2.68v-7c2.36-.35,4.04-.96,5.04-1.83.87-.79,1.47-1.68,1.8-2.68.33-1,.49-2.49.49-4.45v-17.35c0-2.75-.53-4.8-1.6-6.15-1.07-1.35-3-2.42-5.79-3.21V1.77h1.7c4.84,0,8.97.17,12.37.52,5.06.48,9.58,2.14,13.55,4.98,5.72,4.06,8.58,9.84,8.58,17.35,0,6.15-1.92,11.19-5.76,15.12-1.61,1.66-3.5,3.01-5.66,4.06s-5.44,2.23-9.85,3.54Z"/>
        <path d="M335.49,1.77v76.92c0,1.7.33,2.92.98,3.67.35.44.68.71.98.82.3.11,1.31.38,3.01.82,2.09.48,3.14,1.68,3.14,3.6,0,1.14-.57,2.05-1.7,2.75-.83.52-2.2.79-4.12.79h-33.13c-1.57,0-2.78-.29-3.63-.88s-1.28-1.43-1.28-2.52c0-1.79.87-2.97,2.62-3.54,1.44-.48,2.28-.77,2.52-.88.24-.11.49-.36.75-.75.52-.7.79-1.81.79-3.34V13.68c0-1.53-.26-2.64-.79-3.34-.26-.39-.51-.64-.75-.75-.24-.11-1.08-.4-2.52-.88-1.75-.57-2.62-1.74-2.62-3.54,0-1.09.43-1.93,1.28-2.52s2.06-.88,3.63-.88h30.83ZM355.59,47.33c4.02.61,7.1,1.29,9.26,2.03,2.16.74,4.11,1.75,5.86,3.01,1.83,1.35,3.24,2.97,4.22,4.84.98,1.88,1.47,3.86,1.47,5.96v13.55c0,1.4.46,2.09,1.37,2.09.35,0,.64-.1.88-.29.24-.2.58-.58,1.01-1.15,1.09-1.48,2.2-2.23,3.34-2.23.74,0,1.48.39,2.23,1.18.74.79,1.11,1.57,1.11,2.36,0,1.35-.64,3-1.93,4.94-1.29,1.94-2.89,3.68-4.81,5.2-1.79,1.44-3.73,2.48-5.83,3.11-2.09.63-4.56.95-7.4.95-5.76,0-10.26-1.65-13.49-4.94-3.23-3.29-4.84-7.89-4.84-13.78v-11c0-2.44-.02-3.86-.07-4.26-.22-1.74-.83-3.25-1.83-4.52-1.27-1.53-3.08-2.42-5.43-2.68v-7c2.36-.35,4.04-.96,5.04-1.83.87-.79,1.47-1.68,1.8-2.68.33-1,.49-2.49.49-4.45v-17.35c0-2.75-.53-4.8-1.6-6.15-1.07-1.35-3-2.42-5.79-3.21V1.77h1.7c4.84,0,8.97.17,12.37.52,5.06.48,9.58,2.14,13.55,4.98,5.72,4.06,8.58,9.84,8.58,17.35,0,6.15-1.92,11.19-5.76,15.12-1.61,1.66-3.5,3.01-5.66,4.06s-5.44,2.23-9.85,3.54Z"/>
        <path d="M427.93,7.07c-2.23.79-3.8,1.86-4.71,3.21-.92,1.35-1.37,3.34-1.37,5.96v58.53c0,3.84.52,6.55,1.57,8.12.83,1.31,2.33,2.25,4.52,2.82v7.2c-9.69-.79-17.81-4.43-24.35-10.93-8.51-8.47-12.77-20.27-12.77-35.42,0-7.59,1.12-14.46,3.37-20.59,2.25-6.13,5.57-11.34,9.98-15.61,3.36-3.27,6.98-5.76,10.87-7.46,3.88-1.7,8.18-2.66,12.9-2.88v7.07ZM433.3,7.07V0c4.71.22,9.02,1.18,12.93,2.88,3.91,1.7,7.54,4.19,10.9,7.46,8.9,8.69,13.35,20.75,13.35,36.2s-4.26,26.95-12.77,35.42c-6.55,6.55-14.69,10.19-24.42,10.93v-7.2c1.13-.26,2.02-.6,2.65-1.01.63-.41,1.21-1.01,1.73-1.8,1.18-1.79,1.77-4.49,1.77-8.12V16.24c0-2.31-.39-4.15-1.18-5.5-.52-.92-1.15-1.64-1.87-2.16s-1.76-1.02-3.11-1.51Z"/>
        <path d="M514.28,1.77v76.92c0,1.7.33,2.92.98,3.67.35.44.68.71.98.82.31.11,1.31.38,3.01.82,2.09.48,3.14,1.68,3.14,3.6,0,1.14-.57,2.05-1.7,2.75-.83.52-2.2.79-4.12.79h-33.13c-1.57,0-2.78-.29-3.63-.88s-1.28-1.43-1.28-2.52c0-1.79.87-2.97,2.62-3.54,1.44-.48,2.28-.77,2.52-.88.24-.11.49-.36.75-.75.52-.7.79-1.81.79-3.34V13.68c0-1.53-.26-2.64-.79-3.34-.26-.39-.51-.64-.75-.75-.24-.11-1.08-.4-2.52-.88-1.75-.57-2.62-1.74-2.62-3.54,0-1.09.43-1.93,1.28-2.52s2.06-.88,3.63-.88h30.83ZM534.38,47.33c4.01.61,7.1,1.29,9.26,2.03,2.16.74,4.11,1.75,5.86,3.01,1.83,1.35,3.24,2.97,4.22,4.84.98,1.88,1.47,3.86,1.47,5.96v13.55c0,1.4.46,2.09,1.37,2.09.35,0,.64-.1.88-.29.24-.2.58-.58,1.01-1.15,1.09-1.48,2.2-2.23,3.34-2.23.74,0,1.48.39,2.23,1.18.74.79,1.11,1.57,1.11,2.36,0,1.35-.64,3-1.93,4.94-1.29,1.94-2.89,3.68-4.81,5.2-1.79,1.44-3.73,2.48-5.83,3.11-2.09.63-4.56.95-7.4.95-5.76,0-10.26-1.65-13.49-4.94-3.23-3.29-4.84-7.89-4.84-13.78v-11c0-2.44-.02-3.86-.07-4.26-.22-1.74-.83-3.25-1.83-4.52-1.27-1.53-3.08-2.42-5.43-2.68v-7c2.36-.35,4.04-.96,5.04-1.83.87-.79,1.47-1.68,1.8-2.68.33-1,.49-2.49.49-4.45v-17.35c0-2.75-.54-4.8-1.6-6.15-1.07-1.35-3-2.42-5.79-3.21V1.77h1.7c4.84,0,8.97.17,12.37.52,5.06.48,9.58,2.14,13.55,4.98,5.72,4.06,8.58,9.84,8.58,17.35,0,6.15-1.92,11.19-5.76,15.12-1.62,1.66-3.5,3.01-5.66,4.06s-5.45,2.23-9.85,3.54Z"/>
        <path d="M631.2,25.66v9.69l-20.56,28.61h20.56v6.48h-22.85c-1.88,0-3.15-.28-3.83-.85-.68-.57-1.01-1.61-1.01-3.14,0-1.88.74-3.84,2.23-5.89l.98-1.37,24.48-33.52ZM636.37,18.59l10.28-14.21c.83-1.18,1.57-1.91,2.23-2.19.65-.28,1.85-.43,3.6-.43h5.7c1.57,0,2.51.28,2.82.85.26.57.39,1.48.39,2.75v58.59h8.18c2.18,0,3.27,1.05,3.27,3.14,0,2.23-1.22,3.34-3.67,3.34h-7.79v8.31c0,1.66.33,2.88.98,3.67.35.39.68.64.98.75.31.11,1.31.38,3.01.82,2.09.48,3.14,1.68,3.14,3.6,0,1.14-.57,2.05-1.7,2.75-.83.52-2.23.79-4.19.79h-29.46c-1.96,0-3.34-.26-4.12-.79-1.14-.7-1.7-1.61-1.7-2.75,0-1.92,1.05-3.12,3.14-3.6,1.66-.44,2.65-.71,2.98-.82.33-.11.64-.36.95-.75.65-.79.98-2.01.98-3.67V18.59Z"/>
        <path d="M713.29,92.24c-4.58-.57-8.65-1.87-12.21-3.9-3.56-2.03-6.86-4.96-9.92-8.81-3.36-4.19-5.91-9.1-7.66-14.73-1.75-5.63-2.62-11.76-2.62-18.4s.87-12.7,2.62-18.33c1.75-5.63,4.3-10.54,7.66-14.73,3.05-3.84,6.36-6.78,9.92-8.81,3.56-2.03,7.63-3.33,12.21-3.9v6.81c-1.22.39-2.07.73-2.55,1.01-.48.28-.94.71-1.37,1.28-1.27,1.61-1.9,3.95-1.9,7v59.38c0,3.06.63,5.39,1.9,7,.44.57.89.99,1.37,1.28.48.28,1.33.62,2.55,1.01v6.81ZM718.33,92.24v-6.81c1.22-.39,2.07-.73,2.55-1.01.48-.28.94-.71,1.37-1.28,1.26-1.61,1.9-3.95,1.9-7V16.76c0-3.05-.63-5.39-1.9-7-.44-.57-.9-.99-1.37-1.28-.48-.28-1.33-.62-2.55-1.01V.65c4.58.57,8.65,1.87,12.21,3.9,3.56,2.03,6.86,4.97,9.92,8.81,3.36,4.19,5.91,9.1,7.66,14.73,1.75,5.63,2.62,11.74,2.62,18.33s-.87,12.77-2.62,18.4c-1.75,5.63-4.3,10.54-7.66,14.73-3.06,3.84-6.36,6.78-9.92,8.81-3.56,2.03-7.63,3.33-12.21,3.9Z"/>
        <path d="M785.04,25.66v9.69l-20.56,28.61h20.56v6.48h-22.85c-1.88,0-3.15-.28-3.83-.85-.68-.57-1.01-1.61-1.01-3.14,0-1.88.74-3.84,2.23-5.89l.98-1.37,24.48-33.52ZM790.21,18.59l10.28-14.21c.83-1.18,1.57-1.91,2.23-2.19.65-.28,1.85-.43,3.6-.43h5.7c1.57,0,2.51.28,2.82.85.26.57.39,1.48.39,2.75v58.59h8.18c2.18,0,3.27,1.05,3.27,3.14,0,2.23-1.22,3.34-3.67,3.34h-7.79v8.31c0,1.66.33,2.88.98,3.67.35.39.68.64.98.75.31.11,1.31.38,3.01.82,2.09.48,3.14,1.68,3.14,3.6,0,1.14-.57,2.05-1.7,2.75-.83.52-2.23.79-4.19.79h-29.46c-1.96,0-3.34-.26-4.12-.79-1.14-.7-1.7-1.61-1.7-2.75,0-1.92,1.05-3.12,3.14-3.6,1.66-.44,2.65-.71,2.98-.82.33-.11.64-.36.95-.75.65-.79.98-2.01.98-3.67V18.59Z"/>
      </g>
    </g>
  </g>
</svg>